<svg id="Calque_1" data-name="Calque 1" xmlns="http://www.w3.org/2000/svg" viewBox="0 0 12.39 349.09"><defs><style>.cls-1,.cls-2{fill:#6b4e9b;}.cls-1{stroke:#6b4e9b;stroke-miterlimit:10;}</style></defs><line class="cls-1" x1="6.6" x2="6.2" y2="53.92"/><line class="cls-1" x1="6.6" y1="295.24" x2="6.78" y2="349.09"/><path class="cls-2" d="M200.37,294.48l.13,0v.8l-.13,0a2.62,2.62,0,0,0-2.29,2.73c0,1.82,1.55,3.19,4,3.19s4-1.31,4-3.1a2.65,2.65,0,0,0-2.34-2.78l-.13,0v-.8h.13a3.38,3.38,0,0,1,3,3.64c0,2.42-1.87,3.93-4.56,3.93s-4.63-1.69-4.63-4.11A3.23,3.23,0,0,1,200.37,294.48Z" transform="translate(-196.8 -14.58)"/><path class="cls-2" d="M203.3,287.49v5.13c2-.09,2.7-1.1,2.7-2.2a2,2,0,0,0-1.69-2v-.83a2.81,2.81,0,0,1,2.32,2.92c0,1.69-1.18,3-3.56,3-2.17,0-3.57-1.36-3.57-3.14s1.51-2.88,3.38-2.88A2.57,2.57,0,0,1,203.3,287.49Zm-.62,5.13v-4.35c-1.75.09-2.54,1-2.54,2.1S201,292.5,202.68,292.62Z" transform="translate(-196.8 -14.58)"/><path class="cls-2" d="M204.66,285.28h.73c.44,0,.55-.22.49-.79h.59a4.29,4.29,0,0,1,0,.62.83.83,0,0,1-.91,1c-.23,0-.49,0-.9,0H197v-.8Z" transform="translate(-196.8 -14.58)"/><path class="cls-2" d="M203.3,277.78v5.14c2-.09,2.7-1.11,2.7-2.21a2,2,0,0,0-1.69-2v-.83a2.81,2.81,0,0,1,2.32,2.91c0,1.69-1.18,3-3.56,3-2.17,0-3.57-1.35-3.57-3.13s1.51-2.88,3.38-2.88A3.84,3.84,0,0,1,203.3,277.78Zm-.62,5.14v-4.36c-1.75.09-2.54,1-2.54,2.1S201,282.8,202.68,282.92Z" transform="translate(-196.8 -14.58)"/><path class="cls-2" d="M203,270.14c2.46,0,3.65,1.51,3.65,3.22a2.58,2.58,0,0,1-.6,1.75l-.73.42h1.15v.79H197v-.79h3.89l-.74-.45a2.68,2.68,0,0,1-.69-1.92C199.5,271.26,201,270.14,203,270.14Zm.11.87c-1.63,0-3,.78-3,2.26,0,1.21.72,2.26,2.77,2.26h.51c1.93,0,2.58-1.17,2.58-2.17C206,272,204.92,271,203.09,271Z" transform="translate(-196.8 -14.58)"/><path class="cls-2" d="M199.58,266h.62c-.08,1.17.64,2,2.45,2h3.8v.79h-6.77V268h1.23l-.87-.49a1.64,1.64,0,0,1-.51-1.17A1.19,1.19,0,0,1,199.58,266Z" transform="translate(-196.8 -14.58)"/><path class="cls-2" d="M205.22,261l.72.33a2.6,2.6,0,0,1,.69,1.88c0,1.26-.65,2.15-1.88,2.15-1.55,0-2.3-1.47-2.3-3.92V261h-.25c-.31,0-.56,0-.83,0-.78.07-1.23.54-1.23,1.52a1.57,1.57,0,0,0,1.55,1.7v.83a2.33,2.33,0,0,1-2.19-2.53c0-1.5.68-2.21,1.79-2.31.3,0,.58,0,.9,0h2.37a15.64,15.64,0,0,0,1.89-.13v.79Zm-1.38,0h-.78c-.13,1.91.32,3.48,1.63,3.48.85,0,1.31-.54,1.31-1.52A2,2,0,0,0,203.84,261Z" transform="translate(-196.8 -14.58)"/><path class="cls-2" d="M204.6,257.3a5.08,5.08,0,0,0,.6,0c.65,0,.82-.33.7-1.24h.59a4.53,4.53,0,0,1,.06.82,1.06,1.06,0,0,1-1.07,1.22h-5.13V259h-.62v-.87h-1.5v-.79h1.5V256h.62v1.3Z" transform="translate(-196.8 -14.58)"/><path class="cls-2" d="M198.22,253.75a.54.54,0,0,1,.54.54.55.55,0,0,1-.54.54.54.54,0,0,1-.54-.54A.53.53,0,0,1,198.22,253.75Zm8.23.93h-6.77v-.79h6.77Z" transform="translate(-196.8 -14.58)"/><path class="cls-2" d="M202.66,246.53h3.79v.79h-3.7c-.38,0-.68,0-1,0a1.59,1.59,0,0,0-1.58,1.74c0,1.13.82,2.11,2.94,2.11h3.36v.8h-6.77v-.8H201l-.73-.36a2.5,2.5,0,0,1-.76-1.9,2.15,2.15,0,0,1,2-2.39C201.87,246.53,202.11,246.53,202.66,246.53Z" transform="translate(-196.8 -14.58)"/><path class="cls-2" d="M204.74,239.08h1.58a2.77,2.77,0,0,1,2.87,3c0,1.67-.69,2.7-2.16,2.87h-.16v-.8l.16,0c1-.12,1.53-.92,1.53-2.06a2.08,2.08,0,0,0-2.2-2.26H205.2l.74.45a2.63,2.63,0,0,1,.69,1.92c0,1.89-1.47,3-3.48,3-2.46,0-3.65-1.51-3.65-3.22a2.55,2.55,0,0,1,.62-1.75l.72-.42h-1.17v-.79Zm-1.51.79h-.52c-1.92,0-2.57,1.17-2.57,2.17,0,1.35,1.08,2.35,2.91,2.35,1.62,0,2.95-.78,2.95-2.27C206,240.92,205.27,239.87,203.23,239.87Z" transform="translate(-196.8 -14.58)"/><path class="cls-2" d="M206.45,230.58v.79h-8l1.49,2.43h-.86l-1.21-1.93a1.39,1.39,0,0,1-.25-.79v-.5Z" transform="translate(-196.8 -14.58)"/><path class="cls-2" d="M202,221.64c2.61,0,4.59.78,4.59,3.09s-2,3.09-4.59,3.09-4.6-.78-4.6-3.09S199.42,221.64,202,221.64Zm0,.88c-2.36,0-4,.59-4,2.21s1.59,2.21,4,2.21,4-.6,4-2.21S204.39,222.52,202,222.52Z" transform="translate(-196.8 -14.58)"/><path class="cls-2" d="M206.45,214.34v.8h-3.52l-5.31,3.12v-.91l4.53-2.65-4.53-2.59v-.9l5.3,3.13Z" transform="translate(-196.8 -14.58)"/><path class="cls-2" d="M203.3,205.66v5.14c2-.09,2.7-1.11,2.7-2.21a2,2,0,0,0-1.69-2v-.83a2.81,2.81,0,0,1,2.32,2.91c0,1.69-1.18,3-3.56,3-2.17,0-3.57-1.35-3.57-3.13s1.51-2.88,3.38-2.88A3.84,3.84,0,0,1,203.3,205.66Zm-.62,5.14v-4.36c-1.75.09-2.54,1-2.54,2.1S201,210.68,202.68,210.8Z" transform="translate(-196.8 -14.58)"/><path class="cls-2" d="M205.22,200.26l.72.33a2.62,2.62,0,0,1,.69,1.88c0,1.26-.65,2.15-1.88,2.15-1.55,0-2.3-1.47-2.3-3.91v-.44h-.25a7.31,7.31,0,0,0-.83,0c-.78.06-1.23.54-1.23,1.51a1.57,1.57,0,0,0,1.55,1.7v.83a2.33,2.33,0,0,1-2.19-2.53c0-1.5.68-2.2,1.79-2.31.3,0,.58,0,.9,0h2.37a15.64,15.64,0,0,0,1.89-.13v.79Zm-1.38,0h-.78c-.13,1.91.32,3.48,1.63,3.48.85,0,1.31-.53,1.31-1.52A2,2,0,0,0,203.84,200.27Z" transform="translate(-196.8 -14.58)"/><path class="cls-2" d="M199.58,194.74h.62c-.08,1.18.64,2,2.45,2h3.8v.79h-6.77v-.79h1.23l-.87-.49a1.61,1.61,0,0,1-.51-1.16A1.29,1.29,0,0,1,199.58,194.74Z" transform="translate(-196.8 -14.58)"/><path class="cls-2" d="M201.57,189.36v.84a1.57,1.57,0,0,0-1.43,1.65,1.21,1.21,0,0,0,1.2,1.37c.79,0,1.09-.64,1.34-1.62.38-1.56.94-2.3,2.08-2.3s1.87,1,1.87,2.42a2.36,2.36,0,0,1-2.17,2.6v-.82a1.67,1.67,0,0,0,1.54-1.83c0-.86-.39-1.56-1.17-1.56s-1.13.48-1.45,1.8-.78,2.13-1.95,2.13a2,2,0,0,1-1.93-2.26A2.25,2.25,0,0,1,201.57,189.36Z" transform="translate(-196.8 -14.58)"/><path class="cls-2" d="M202,177.43c2.66,0,4.59,1.52,4.59,4.11s-1.93,4.1-4.59,4.1-4.6-1.53-4.6-4.1S199.35,177.43,202,177.43Zm0,.88c-2.49,0-4,1.32-4,3.23s1.47,3.21,4,3.21,4-1.31,4-3.21S204.51,178.31,202,178.31Z" transform="translate(-196.8 -14.58)"/><path class="cls-2" d="M198.91,175.13h.82v-1.39h.64v1.39h6.08v.79h-6.08v.73h-.64v-.73H199a6.52,6.52,0,0,1-.76,0,1.48,1.48,0,0,1-1.42-1.56,3.92,3.92,0,0,1,.06-.71h.67c-.18.89.11,1.4.72,1.48A5,5,0,0,0,198.91,175.13Z" transform="translate(-196.8 -14.58)"/><path class="cls-2" d="M202.32,162.68h4.13v.72h-1.82l.8.34a3.06,3.06,0,0,1,1.2,2.59c0,2.43-1.87,3.94-4.56,3.94s-4.63-1.7-4.63-4.14a3.25,3.25,0,0,1,2.93-3.51h.13v.79l-.13,0a2.62,2.62,0,0,0-2.29,2.73c0,1.86,1.55,3.24,4,3.24s4-1.31,4-3.11a2.8,2.8,0,0,0-3-2.8v2.4h-.65Z" transform="translate(-196.8 -14.58)"/><path class="cls-2" d="M202,153.44c2.79,0,4.22,1.74,4.44,3.47a8.47,8.47,0,0,1,0,1.12v2.59h-8.83V158a9,9,0,0,1,0-1.07C197.86,155.14,199.14,153.44,202,153.44Zm0,.87c-2.27,0-3.43,1.24-3.64,2.7a7.27,7.27,0,0,0,0,1v1.8h7.51v-1.76a7.39,7.39,0,0,0,0-1.09C205.52,155.53,204.25,154.31,202,154.31Z" transform="translate(-196.8 -14.58)"/><path class="cls-2" d="M202.32,144.73h4.13v.72h-1.82l.8.34a3.06,3.06,0,0,1,1.2,2.59c0,2.43-1.87,3.94-4.56,3.94s-4.63-1.7-4.63-4.14a3.25,3.25,0,0,1,2.93-3.51h.13v.79l-.13,0a2.62,2.62,0,0,0-2.29,2.73c0,1.86,1.55,3.24,4,3.24s4-1.3,4-3.11a2.8,2.8,0,0,0-3-2.8v2.4h-.65Z" transform="translate(-196.8 -14.58)"/><path class="cls-2" d="M200.37,133.09h.13v.8l-.13,0a2.61,2.61,0,0,0-2.29,2.73c0,1.82,1.55,3.19,4,3.19s4-1.31,4-3.1a2.65,2.65,0,0,0-2.34-2.78l-.13,0v-.79h.13a3.37,3.37,0,0,1,3,3.64c0,2.42-1.87,3.93-4.56,3.93s-4.63-1.69-4.63-4.11A3.23,3.23,0,0,1,200.37,133.09Z" transform="translate(-196.8 -14.58)"/><path class="cls-2" d="M203.07,125.51c2,0,3.56,1.14,3.56,3.3s-1.57,3.29-3.56,3.29-3.57-1.14-3.57-3.29S201.08,125.51,203.07,125.51Zm0,.88c-1.84,0-2.93,1-2.93,2.42s1.09,2.41,2.93,2.41,2.93-1,2.93-2.41S204.92,126.39,203.07,126.39Z" transform="translate(-196.8 -14.58)"/><path class="cls-2" d="M202.46,115.29h4v.79h-3.63a10.73,10.73,0,0,0-1.25,0,1.43,1.43,0,0,0-1.43,1.51c0,1,.76,1.7,2.77,1.7h3.54v.8h-3.63a10.73,10.73,0,0,0-1.25,0,1.43,1.43,0,0,0-1.43,1.51c0,1,.76,1.7,2.77,1.7h3.54v.8h-6.77v-.8h1.16l-.75-.38a2.07,2.07,0,0,1-.59-1.56,1.9,1.9,0,0,1,1.45-2l-.86-.52a2,2,0,0,1-.59-1.56,1.93,1.93,0,0,1,1.82-2.05A7,7,0,0,1,202.46,115.29Z" transform="translate(-196.8 -14.58)"/><path class="cls-2" d="M202.46,104.56h4v.79h-3.63a10.73,10.73,0,0,0-1.25.05,1.44,1.44,0,0,0-1.43,1.51c0,1,.76,1.7,2.77,1.7h3.54v.8h-3.63a10.73,10.73,0,0,0-1.25,0,1.43,1.43,0,0,0-1.43,1.51c0,1,.76,1.7,2.77,1.7h3.54v.8h-6.77v-.8h1.16l-.75-.38a2.07,2.07,0,0,1-.59-1.56,1.88,1.88,0,0,1,1.45-2l-.86-.53a2,2,0,0,1-.59-1.56,1.93,1.93,0,0,1,1.82-2A7,7,0,0,1,202.46,104.56Z" transform="translate(-196.8 -14.58)"/><path class="cls-2" d="M206.45,97.37v.8h-1.3l.75.37a2.52,2.52,0,0,1,.73,1.89,2.16,2.16,0,0,1-1.85,2.36,8.77,8.77,0,0,1-1.14,0h-4v-.79h3.78c.32,0,.66,0,1,0a1.63,1.63,0,0,0,1.52-1.75c0-1.12-.82-2.08-2.94-2.08h-3.37v-.8Z" transform="translate(-196.8 -14.58)"/><path class="cls-2" d="M202.66,90h3.79v.8h-3.7c-.38,0-.68,0-1,0a1.59,1.59,0,0,0-1.58,1.74c0,1.13.82,2.12,2.94,2.12h3.36v.79h-6.77v-.79H201l-.73-.36a2.52,2.52,0,0,1-.76-1.91,2.15,2.15,0,0,1,2-2.38C201.87,90,202.11,90,202.66,90Z" transform="translate(-196.8 -14.58)"/><path class="cls-2" d="M198.22,87.26a.54.54,0,1,1,0,1.07.54.54,0,1,1,0-1.07Zm8.23.93h-6.77V87.4h6.77Z" transform="translate(-196.8 -14.58)"/><path class="cls-2" d="M204.6,84.48h.6c.65,0,.82-.33.7-1.24h.59a4.53,4.53,0,0,1,.06.82,1,1,0,0,1-1.07,1.21h-5.13v.88h-.62v-.88h-1.5v-.79h1.5V83.19h.62v1.29Z" transform="translate(-196.8 -14.58)"/><path class="cls-2" d="M206.81,79.31c1.79.69,2.33,1.34,2.33,2.3a2.08,2.08,0,0,1,0,.53h-.65a2.32,2.32,0,0,0,0-.44c0-.61-.32-1.07-1.41-1.51l-.36-.14-7,2.68v-.9l6.18-2.19-6.18-2.17v-.88Z" transform="translate(-196.8 -14.58)"/></svg>